# xmcd
#
# Track frame offsets:
#	150
#	16406
#	33461
#	47572
#	62606
#	78109
#	93430
#	107640
#	122901
#	136246
#	151246
#	164242
#	185415
#	202091
#	215297
#
# Disc length: 3051 seconds
#
# Revision: 1
# Processed by: cddbd v1.5.2PL0 Copyright (c) Steve Scherf et al.
# Submitted via: audiograbber 1.83.01
#
DISCID=ca0be90f
DTITLE=WALDONYS - UNI-VERSO
DYEAR=1900
DGENRE=FORRÓ
TTITLE0=A MAIS BELA
TTITLE1=O QUE EU QUERIA
TTITLE2=ESQUADROS
TTITLE3=UNI-VERSO
TTITLE4=E NÃO É POUCO
TTITLE5=DESFAZENDO A MALA
TTITLE6=O PLANETA MOVIDO A INTERNET
TTITLE7=VIDA DE VIAJANTE(DOMINGUINHOS)
TTITLE8=SOBRADINHO
TTITLE9=SÃO PEDRO ESQUECEU DE ASSINAR
TTITLE10=UMA PRECE PARA OS HOMENS SEM DEUS
TTITLE11=SHONHO DE ÍCARO
TTITLE12=PARTE DO QUE APRENDI
TTITLE13=RABO DE GALO
TTITLE14=WALDONYANO
EXTD=
EXTT0=
EXTT1=
EXTT2=
EXTT3=
EXTT4=
EXTT5=
EXTT6=
EXTT7=
EXTT8=
EXTT9=
EXTT10=
EXTT11=
EXTT12=
EXTT13=
EXTT14=
PLAYORDER=
